<svg width="62" height="62" viewBox="0 0 62 62" fill="none" xmlns="http://www.w3.org/2000/svg">
<g filter="url(#filter0_iiiii_101_138)">
<rect x="1" y="1" width="60" height="60" rx="30" fill="#008DDA"/>
<rect x="1" y="1" width="60" height="60" rx="30" fill="url(#paint0_radial_101_138)" fill-opacity="0.7"/>
</g>
<path fill-rule="evenodd" clip-rule="evenodd" d="M19.38 29.3125C19.38 27.9696 19.6446 26.6399 20.1585 25.3992C20.6724 24.1586 21.4257 23.0313 22.3753 22.0817C23.325 21.1322 24.4523 20.3789 25.6931 19.865C26.9338 19.3511 28.2636 19.0866 29.6066 19.0866C30.9496 19.0866 32.2794 19.3511 33.5201 19.865C34.7609 20.3789 35.8883 21.1322 36.8379 22.0817C37.7875 23.0313 38.5408 24.1586 39.0547 25.3992C39.5687 26.6399 39.8332 27.9696 39.8332 29.3125C39.8332 32.0246 38.7557 34.6256 36.8379 36.5433C34.92 38.4611 32.3189 39.5384 29.6066 39.5384C26.8944 39.5384 24.2932 38.4611 22.3753 36.5433C20.4575 34.6256 19.38 32.0246 19.38 29.3125ZM29.6066 15.678C27.4366 15.6783 25.2981 16.1965 23.3686 17.1894C21.4392 18.1824 19.7747 19.6215 18.5133 21.3871C17.252 23.1527 16.4303 25.1939 16.1165 27.3409C15.8027 29.4879 16.0059 31.6788 16.7092 33.7315C17.4125 35.7843 18.5956 37.6395 20.1601 39.143C21.7247 40.6466 23.6255 41.7551 25.7046 42.3763C27.7838 42.9975 29.9811 43.1136 32.1142 42.7149C34.2472 42.3162 36.2542 41.4142 37.9685 40.0838L43.7414 45.8563C44.0629 46.1668 44.4934 46.3386 44.9403 46.3347C45.3872 46.3308 45.8147 46.1516 46.1307 45.8356C46.4467 45.5196 46.626 45.0921 46.6299 44.6453C46.6338 44.1984 46.462 43.7679 46.1515 43.4464L40.3786 37.6739C41.9434 35.6585 42.9113 33.2444 43.1721 30.7063C43.4329 28.1681 42.9763 25.6077 41.8541 23.3161C40.7319 21.0246 38.9891 19.0939 36.824 17.7437C34.6589 16.3934 32.1583 15.6777 29.6066 15.678ZM29.6066 36.1298C31.4148 36.1298 33.1489 35.4116 34.4275 34.1331C35.706 32.8546 36.4243 31.1206 36.4243 29.3125C36.4243 27.5045 35.706 25.7705 34.4275 24.492C33.1489 23.2135 31.4148 22.4953 29.6066 22.4953C27.7984 22.4953 26.0643 23.2135 24.7858 24.492C23.5072 25.7705 22.7889 27.5045 22.7889 29.3125C22.7889 31.1206 23.5072 32.8546 24.7858 34.1331C26.0643 35.4116 27.7984 36.1298 29.6066 36.1298Z" fill="white"/>
<defs>
<filter id="filter0_iiiii_101_138" x="-9" y="-11" width="76" height="81" filterUnits="userSpaceOnUse" color-interpolation-filters="sRGB">
<feFlood flood-opacity="0" result="BackgroundImageFix"/>
<feBlend mode="normal" in="SourceGraphic" in2="BackgroundImageFix" result="shape"/>
<feColorMatrix in="SourceAlpha" type="matrix" values="0 0 0 0 0 0 0 0 0 0 0 0 0 0 0 0 0 0 127 0" result="hardAlpha"/>
<feOffset dx="3" dy="4"/>
<feGaussianBlur stdDeviation="4"/>
<feComposite in2="hardAlpha" operator="arithmetic" k2="-1" k3="1"/>
<feColorMatrix type="matrix" values="0 0 0 0 1 0 0 0 0 1 0 0 0 0 1 0 0 0 0.7 0"/>
<feBlend mode="normal" in2="shape" result="effect1_innerShadow_101_138"/>
<feColorMatrix in="SourceAlpha" type="matrix" values="0 0 0 0 0 0 0 0 0 0 0 0 0 0 0 0 0 0 127 0" result="hardAlpha"/>
<feOffset dx="-10" dy="-12"/>
<feGaussianBlur stdDeviation="9"/>
<feComposite in2="hardAlpha" operator="arithmetic" k2="-1" k3="1"/>
<feColorMatrix type="matrix" values="0 0 0 0 0 0 0 0 0 0 0 0 0 0 0 0 0 0 0.25 0"/>
<feBlend mode="normal" in2="effect1_innerShadow_101_138" result="effect2_innerShadow_101_138"/>
<feColorMatrix in="SourceAlpha" type="matrix" values="0 0 0 0 0 0 0 0 0 0 0 0 0 0 0 0 0 0 127 0" result="hardAlpha"/>
<feOffset dy="2"/>
<feGaussianBlur stdDeviation="1"/>
<feComposite in2="hardAlpha" operator="arithmetic" k2="-1" k3="1"/>
<feColorMatrix type="matrix" values="0 0 0 0 1 0 0 0 0 1 0 0 0 0 1 0 0 0 0.6 0"/>
<feBlend mode="normal" in2="effect2_innerShadow_101_138" result="effect3_innerShadow_101_138"/>
<feColorMatrix in="SourceAlpha" type="matrix" values="0 0 0 0 0 0 0 0 0 0 0 0 0 0 0 0 0 0 127 0" result="hardAlpha"/>
<feOffset dx="6" dy="9"/>
<feGaussianBlur stdDeviation="4.5"/>
<feComposite in2="hardAlpha" operator="arithmetic" k2="-1" k3="1"/>
<feColorMatrix type="matrix" values="0 0 0 0 1 0 0 0 0 1 0 0 0 0 1 0 0 0 0.1 0"/>
<feBlend mode="normal" in2="effect3_innerShadow_101_138" result="effect4_innerShadow_101_138"/>
<feColorMatrix in="SourceAlpha" type="matrix" values="0 0 0 0 0 0 0 0 0 0 0 0 0 0 0 0 0 0 127 0" result="hardAlpha"/>
<feOffset dy="-3"/>
<feGaussianBlur stdDeviation="4"/>
<feComposite in2="hardAlpha" operator="arithmetic" k2="-1" k3="1"/>
<feColorMatrix type="matrix" values="0 0 0 0 1 0 0 0 0 1 0 0 0 0 1 0 0 0 0.25 0"/>
<feBlend mode="normal" in2="effect4_innerShadow_101_138" result="effect5_innerShadow_101_138"/>
</filter>
<radialGradient id="paint0_radial_101_138" cx="0" cy="0" r="1" gradientUnits="userSpaceOnUse" gradientTransform="translate(20.1803 12.8033) rotate(55.9679) scale(45.6954 45.6954)">
<stop stop-color="white"/>
<stop offset="0.697917" stop-color="white" stop-opacity="0"/>
<stop offset="1" stop-color="white" stop-opacity="0"/>
</radialGradient>
</defs>
</svg>
