<svg width="201" height="74" viewBox="0 0 201 74" fill="none" xmlns="http://www.w3.org/2000/svg">
<g clip-path="url(#clip0_124_40)">
<rect width="201" height="74" rx="15" fill="white"/>
<g filter="url(#filter0_iiiii_124_40)">
<rect width="201" height="74" rx="15" fill="#008DDA"/>
<rect width="201" height="74" rx="15" fill="url(#paint0_radial_124_40)" fill-opacity="0.7"/>
</g>
<path d="M23.264 45.36C18.416 45.36 14.72 41.64 14.72 36.912C14.72 32.184 18.416 28.464 23.264 28.464C26.144 28.464 28.976 30 30.152 32.664L26.528 34.68C25.856 33.48 24.944 32.664 23.072 32.664C20.792 32.664 19.28 34.392 19.28 36.912C19.28 39.432 20.744 41.16 23.072 41.16C24.944 41.16 25.928 40.344 26.528 39.144L30.152 41.16C28.976 43.824 26.144 45.36 23.264 45.36ZM35.7856 45H31.4656V38.352C31.4656 35.16 33.2896 32.616 37.2016 32.616C38.0176 32.616 38.9056 32.76 39.5056 33.024V37.176C38.9296 36.864 38.2096 36.696 37.6096 36.696C36.4816 36.696 35.7856 37.344 35.7856 38.496V45ZM47.315 45.336C43.475 45.336 40.595 42.792 40.595 38.856C40.595 35.4 43.187 32.52 46.979 32.52C50.915 32.52 53.099 35.448 53.099 38.664V39.744H44.747C45.035 40.944 45.947 41.664 47.267 41.664C48.419 41.664 49.331 41.04 49.763 40.104L53.075 41.76C52.043 43.992 50.003 45.336 47.315 45.336ZM44.939 37.512H48.803C48.611 36.84 47.939 36.216 46.931 36.216C45.899 36.216 45.203 36.816 44.939 37.512ZM60.6547 45.36C57.1507 45.36 54.7747 42.48 54.7747 38.976C54.7747 35.496 57.6307 32.616 61.3747 32.616C65.2147 32.616 67.9747 35.304 67.9747 38.976V45H63.8947V44.112C63.1267 44.904 62.0467 45.36 60.6547 45.36ZM61.3747 41.304C62.7427 41.304 63.6547 40.248 63.6547 39C63.6547 37.728 62.7427 36.672 61.3747 36.672C60.0067 36.672 59.0947 37.728 59.0947 39C59.0947 40.248 60.0067 41.304 61.3747 41.304ZM77.1879 45.384C73.2759 45.384 71.4519 43.08 71.4519 39.888V36.6H69.4119V33H71.4519V30H75.7719V33H79.7079V36.6H75.7719V39.744C75.7719 40.896 76.4679 41.544 77.5959 41.544C78.1959 41.544 79.1319 41.376 79.7079 41.064V44.88C79.1079 45.216 78.0039 45.384 77.1879 45.384ZM87.8619 45.336C84.0219 45.336 81.1419 42.792 81.1419 38.856C81.1419 35.4 83.7339 32.52 87.5259 32.52C91.4619 32.52 93.6459 35.448 93.6459 38.664V39.744H85.2939C85.5819 40.944 86.4939 41.664 87.8139 41.664C88.9659 41.664 89.8779 41.04 90.3099 40.104L93.6219 41.76C92.5899 43.992 90.5499 45.336 87.8619 45.336ZM85.4859 37.512H89.3499C89.1579 36.84 88.4859 36.216 87.4779 36.216C86.4459 36.216 85.7499 36.816 85.4859 37.512ZM101.688 45L105.864 31.368C106.464 29.376 108.144 28.44 109.824 28.44C111.504 28.44 113.184 29.376 113.784 31.368L117.96 45H113.424L112.68 42.264H106.992L106.224 45H101.688ZM109.656 32.664L108.096 38.304H111.576L110.04 32.664C109.992 32.496 109.944 32.424 109.848 32.424C109.752 32.424 109.704 32.496 109.656 32.664ZM125.172 45.336C121.428 45.384 118.572 42.456 118.572 38.976C118.572 35.496 121.428 32.592 125.172 32.64C127.572 32.664 129.78 33.744 130.884 36.216L127.308 38.136C126.924 37.32 126.156 36.696 125.172 36.696C123.804 36.696 122.892 37.704 122.892 38.976C122.892 40.248 123.804 41.28 125.172 41.28C126.156 41.28 126.924 40.656 127.308 39.84L130.884 41.76C129.78 44.232 127.572 45.312 125.172 45.336ZM138.695 45.36C134.951 45.36 132.095 42.48 132.095 38.976C132.095 35.496 134.951 32.616 138.695 32.616C142.439 32.616 145.295 35.496 145.295 38.976C145.295 42.48 142.439 45.36 138.695 45.36ZM138.695 41.304C140.063 41.304 140.975 40.248 140.975 39C140.975 37.728 140.063 36.672 138.695 36.672C137.327 36.672 136.415 37.728 136.415 39C136.415 40.248 137.327 41.304 138.695 41.304ZM153.295 41.16C154.687 41.16 155.287 39.888 155.287 38.376V33H159.607V38.904C159.607 42.432 157.543 45.36 153.295 45.36C149.047 45.36 146.983 42.432 146.983 38.904V33H151.303V38.376C151.303 39.888 151.903 41.16 153.295 41.16ZM168.282 36.84C166.698 36.84 166.098 38.112 166.098 39.624V45H161.778V39.096C161.778 35.568 163.842 32.64 168.282 32.64C172.722 32.64 174.786 35.568 174.786 39.096V45H170.466V39.624C170.466 38.112 169.866 36.84 168.282 36.84ZM183.993 45.384C180.081 45.384 178.257 43.08 178.257 39.888V36.6H176.217V33H178.257V30H182.577V33H186.513V36.6H182.577V39.744C182.577 40.896 183.273 41.544 184.401 41.544C185.001 41.544 185.937 41.376 186.513 41.064V44.88C185.913 45.216 184.809 45.384 183.993 45.384Z" fill="white"/>
</g>
<defs>
<filter id="filter0_iiiii_124_40" x="-10" y="-12" width="217" height="95" filterUnits="userSpaceOnUse" color-interpolation-filters="sRGB">
<feFlood flood-opacity="0" result="BackgroundImageFix"/>
<feBlend mode="normal" in="SourceGraphic" in2="BackgroundImageFix" result="shape"/>
<feColorMatrix in="SourceAlpha" type="matrix" values="0 0 0 0 0 0 0 0 0 0 0 0 0 0 0 0 0 0 127 0" result="hardAlpha"/>
<feOffset dx="3" dy="4"/>
<feGaussianBlur stdDeviation="4"/>
<feComposite in2="hardAlpha" operator="arithmetic" k2="-1" k3="1"/>
<feColorMatrix type="matrix" values="0 0 0 0 1 0 0 0 0 1 0 0 0 0 1 0 0 0 0.7 0"/>
<feBlend mode="normal" in2="shape" result="effect1_innerShadow_124_40"/>
<feColorMatrix in="SourceAlpha" type="matrix" values="0 0 0 0 0 0 0 0 0 0 0 0 0 0 0 0 0 0 127 0" result="hardAlpha"/>
<feOffset dx="-10" dy="-12"/>
<feGaussianBlur stdDeviation="9"/>
<feComposite in2="hardAlpha" operator="arithmetic" k2="-1" k3="1"/>
<feColorMatrix type="matrix" values="0 0 0 0 0 0 0 0 0 0 0 0 0 0 0 0 0 0 0.25 0"/>
<feBlend mode="normal" in2="effect1_innerShadow_124_40" result="effect2_innerShadow_124_40"/>
<feColorMatrix in="SourceAlpha" type="matrix" values="0 0 0 0 0 0 0 0 0 0 0 0 0 0 0 0 0 0 127 0" result="hardAlpha"/>
<feOffset dy="2"/>
<feGaussianBlur stdDeviation="1"/>
<feComposite in2="hardAlpha" operator="arithmetic" k2="-1" k3="1"/>
<feColorMatrix type="matrix" values="0 0 0 0 1 0 0 0 0 1 0 0 0 0 1 0 0 0 0.6 0"/>
<feBlend mode="normal" in2="effect2_innerShadow_124_40" result="effect3_innerShadow_124_40"/>
<feColorMatrix in="SourceAlpha" type="matrix" values="0 0 0 0 0 0 0 0 0 0 0 0 0 0 0 0 0 0 127 0" result="hardAlpha"/>
<feOffset dx="6" dy="9"/>
<feGaussianBlur stdDeviation="4.5"/>
<feComposite in2="hardAlpha" operator="arithmetic" k2="-1" k3="1"/>
<feColorMatrix type="matrix" values="0 0 0 0 1 0 0 0 0 1 0 0 0 0 1 0 0 0 0.1 0"/>
<feBlend mode="normal" in2="effect3_innerShadow_124_40" result="effect4_innerShadow_124_40"/>
<feColorMatrix in="SourceAlpha" type="matrix" values="0 0 0 0 0 0 0 0 0 0 0 0 0 0 0 0 0 0 127 0" result="hardAlpha"/>
<feOffset dy="-3"/>
<feGaussianBlur stdDeviation="4"/>
<feComposite in2="hardAlpha" operator="arithmetic" k2="-1" k3="1"/>
<feColorMatrix type="matrix" values="0 0 0 0 1 0 0 0 0 1 0 0 0 0 1 0 0 0 0.25 0"/>
<feBlend mode="normal" in2="effect4_innerShadow_124_40" result="effect5_innerShadow_124_40"/>
</filter>
<radialGradient id="paint0_radial_124_40" cx="0" cy="0" r="1" gradientUnits="userSpaceOnUse" gradientTransform="translate(64.2541 14.5574) rotate(28.5974) scale(97.5759 88.4152)">
<stop stop-color="white"/>
<stop offset="0.697917" stop-color="white" stop-opacity="0"/>
<stop offset="1" stop-color="white" stop-opacity="0"/>
</radialGradient>
<clipPath id="clip0_124_40">
<rect width="201" height="74" rx="15" fill="white"/>
</clipPath>
</defs>
</svg>
