<svg width="431" height="78" viewBox="0 0 431 78" fill="none" xmlns="http://www.w3.org/2000/svg">
<mask id="mask0_121_22" style="mask-type:alpha" maskUnits="userSpaceOnUse" x="0" y="0" width="431" height="78">
<path d="M410.028 3.95251V3.95857H410.034L410.07 3.96462L410.028 3.95251Z" fill="black"/>
<path d="M424.509 18.8481C423.707 17.6624 421.093 17.4028 420.118 18.447C416.648 22.1812 414.247 34.3337 413.291 37.6078C413.154 38.0797 412.744 38.416 412.257 38.475C399.559 40.0324 401.08 29.9387 397.378 13.9105C397.378 13.9105 397.128 0.572228 389.136 0H389.077C382.059 0.0648918 380.591 13.9105 380.591 13.9105C376.889 29.9387 378.411 40.0324 365.712 38.475C365.225 38.416 364.815 38.0797 364.678 37.6078C363.722 34.3337 361.321 22.1812 357.851 18.447C356.876 17.3969 354.262 17.6624 353.46 18.8481C351.475 21.7742 345.723 28.3282 348.914 49.0287C349.069 50.0316 349.14 51.0463 349.122 52.061C349.039 56.6329 350.346 71.7232 371.435 71.0979C371.868 72.3898 372.332 75.3394 375.089 75.9884C377.822 76.6255 382.083 78.1416 388.994 77.9882C395.904 78.1416 400.165 76.6255 402.898 75.9884C405.655 75.3453 406.119 72.3898 406.552 71.0979C427.368 71.7173 428.913 57.0104 428.865 52.2379C428.853 51.0994 428.93 49.9667 429.103 48.84C432.228 28.2869 426.506 21.7624 424.527 18.8422L424.509 18.8481ZM358.522 56.5916C356.205 58.09 353.727 55.63 355.236 53.3293C355.332 53.1877 355.456 53.0638 355.593 52.9753C357.91 51.4769 360.382 53.9369 358.879 56.2376C358.784 56.3792 358.665 56.5031 358.522 56.5916ZM360.745 48.02C363.062 46.5216 365.54 48.9815 364.031 51.2823C363.936 51.4238 363.817 51.5477 363.674 51.6362C361.357 53.1346 358.879 50.6805 360.388 48.3739C360.483 48.2323 360.608 48.1085 360.745 48.02ZM363.87 61.7357C361.553 63.2342 359.075 60.7801 360.584 58.4735C360.679 58.3319 360.804 58.208 360.941 58.1195C363.258 56.6211 365.736 59.0811 364.227 61.3818C364.132 61.5234 364.013 61.6473 363.87 61.7357ZM369.218 56.5916C366.901 58.09 364.423 55.63 365.932 53.3293C366.027 53.1877 366.146 53.0638 366.289 52.9753C368.606 51.4769 371.084 53.931 369.575 56.2376C369.48 56.3792 369.355 56.5031 369.218 56.5916ZM390.36 46.1676C387.264 48.2146 383.931 44.9052 385.993 41.8316C386.1 41.6724 386.242 41.5308 386.403 41.4246C389.499 39.3776 392.832 42.687 390.77 45.7606C390.663 45.9198 390.521 46.0614 390.36 46.1676ZM390.877 30.8531C387.039 33.4783 382.855 29.3311 385.5 25.5143C385.601 25.3668 385.737 25.2311 385.886 25.1308C389.724 22.5057 393.902 26.6529 391.263 30.4697C391.162 30.6172 391.026 30.7528 390.877 30.8531ZM419.304 55.9899H416.155V59.1165H412.702V55.9899H409.553V52.5624H412.702V49.4358H416.155V52.5624H419.304V55.9899Z" fill="black"/>
<path d="M96.6542 55.0105L84.8413 16.8541H97.9793L108.2 51.2173C108.271 51.4238 108.336 51.4946 108.479 51.4946C108.622 51.4946 108.687 51.4238 108.758 51.2173L118.836 16.8541H131.974L120.161 55.0105C118.218 61.3581 114.671 64.5319 108.414 64.5319C102.157 64.5319 98.6151 61.3581 96.6661 55.0105H96.6542Z" fill="black"/>
<path d="M148.297 63.4288C140.376 63.4288 137.173 59.2875 137.173 52.7334V27.5495C137.173 20.9954 140.37 16.8541 148.297 16.8541H172.345V28.2397H150.032V34.4516H170.746V45.8372H150.032V52.0491H172.689V63.4347H148.291L148.297 63.4288Z" fill="black"/>
<path d="M181.727 63.4288V16.8483H201.395C212.519 16.8483 220.998 22.0219 220.998 32.3043C220.998 38.4455 217.522 43.4834 212.032 45.206C214.397 46.7221 215.924 49.4181 218.01 53.6242L222.805 63.4229H208.835L204.456 54.6566C202.857 51.4828 201.051 50.3089 196.879 50.3089H194.515L194.443 63.4229H181.721L181.727 63.4288ZM194.586 28.5819L194.515 39H201.395C205.151 39 207.789 36.9293 207.789 33.6199C207.789 30.098 205.145 28.5819 201.532 28.5819H194.58H194.586Z" fill="black"/>
<path d="M237.749 55.0105L225.937 16.8541H239.074L249.295 51.2173C249.366 51.4238 249.432 51.4946 249.574 51.4946C249.717 51.4946 249.782 51.4238 249.853 51.2173L259.931 16.8541H273.069L261.256 55.0105C259.313 61.3581 255.766 64.5319 249.509 64.5319C243.252 64.5319 239.71 61.3581 237.761 55.0105H237.749Z" fill="black"/>
<path d="M291.823 16.8483V63.4288H278.964V16.8483H291.823Z" fill="black"/>
<path d="M313.362 63.4288C305.442 63.4288 302.239 59.2875 302.239 52.7334V27.5495C302.239 20.9954 305.436 16.8541 313.362 16.8541H337.41V28.2397H315.097V34.4516H335.812V45.8372H315.097V52.0491H337.755V63.4347H313.356L313.362 63.4288Z" fill="black"/>
<path d="M0 39C0 16.8011 16.9112 0.123901 39.6041 0.123901C62.297 0.123901 79.2082 16.8011 79.2082 39C79.2082 61.1989 62.297 77.8761 39.6041 77.8761C16.9112 77.8761 0 61.1989 0 39ZM58.0721 39C58.0721 27.9566 50.0622 19.4499 39.6041 19.4499C29.146 19.4499 21.136 27.9507 21.136 39C21.136 50.0493 29.146 58.5502 39.6041 58.5502C50.0622 58.5502 58.0721 50.0434 58.0721 39Z" fill="black"/>
<path d="M39.6042 48.4271C44.3364 48.4271 48.1727 44.4151 48.1727 39.4661C48.1727 34.5171 44.3364 30.5051 39.6042 30.5051C34.8719 30.5051 31.0356 34.5171 31.0356 39.4661C31.0356 44.4151 34.8719 48.4271 39.6042 48.4271Z" fill="black"/>
</mask>
<g mask="url(#mask0_121_22)">
<rect x="-24" y="-32" width="479" height="141" fill="url(#paint0_linear_121_22)"/>
</g>
<defs>
<linearGradient id="paint0_linear_121_22" x1="-24" y1="38.5" x2="455" y2="38.5" gradientUnits="userSpaceOnUse">
<stop stop-color="#008DDA"/>
<stop offset="1" stop-color="#41C9E2"/>
</linearGradient>
</defs>
</svg>
