<svg width="106" height="101" viewBox="0 0 106 101" fill="none" xmlns="http://www.w3.org/2000/svg">
<path d="M80.1357 5.39177V5.39958H80.1435L80.1902 5.40739L80.1357 5.39177Z" fill="url(#paint0_linear_96_2)"/>
<path d="M98.8334 24.6249C97.7976 23.0938 94.4218 22.7587 93.1636 24.1069C88.6829 28.9285 85.5833 44.6197 84.348 48.8472C84.1715 49.4565 83.6421 49.8907 83.013 49.9669C66.6171 51.9778 68.5812 38.945 63.8013 18.2494C63.8013 18.2494 63.4791 1.02719 53.1597 0.28833H53.083C44.0219 0.372118 42.1268 18.2494 42.1268 18.2494C37.3469 38.945 39.3111 51.9778 22.9152 49.9669C22.2861 49.8907 21.7566 49.4565 21.5802 48.8472C20.3449 44.6197 17.2453 28.9285 12.7646 24.1069C11.5063 22.7511 8.13051 23.0938 7.09474 24.6249C4.53216 28.4029 -2.89473 36.8655 1.22534 63.5938C1.42482 64.8887 1.51687 66.1989 1.49386 67.509C1.38644 73.4122 3.0744 92.8967 30.3037 92.0893C30.8638 93.7574 31.4622 97.566 35.0222 98.4038C38.5515 99.2265 44.0526 101.184 52.9756 100.986C61.8986 101.184 67.3997 99.2265 70.929 98.4038C74.4889 97.5736 75.0874 93.7574 75.6475 92.0893C102.524 92.8891 104.519 73.8997 104.457 67.7375C104.442 66.2674 104.542 64.8049 104.764 63.3501C108.8 36.8122 101.411 28.3877 98.8565 24.6173L98.8334 24.6249ZM13.6316 73.3589C10.6393 75.2936 7.43999 72.1173 9.38877 69.1467C9.51153 68.9639 9.67263 68.8039 9.8491 68.6896C12.8413 66.7549 16.0331 69.9312 14.0919 72.9019C13.9692 73.0847 13.8157 73.2446 13.6316 73.3589ZM16.501 62.2913C19.4933 60.3566 22.6927 63.5329 20.7439 66.5035C20.6211 66.6863 20.4677 66.8463 20.2836 66.9606C17.2913 68.8953 14.0919 65.7266 16.0407 62.7483C16.1635 62.5655 16.3246 62.4056 16.501 62.2913ZM20.5367 80.001C17.5445 81.9357 14.3451 78.767 16.2939 75.7887C16.4167 75.6059 16.5778 75.446 16.7542 75.3317C19.7465 73.397 22.9459 76.5733 20.9971 79.544C20.8743 79.7268 20.7209 79.8867 20.5367 80.001ZM27.4419 73.3589C24.4496 75.2936 21.2503 72.1173 23.1991 69.1467C23.3218 68.9639 23.4753 68.8039 23.6594 68.6896C26.6516 66.7549 29.851 69.9236 27.9022 72.9019C27.7795 73.0847 27.6183 73.2446 27.4419 73.3589ZM54.7402 59.8995C50.7429 62.5427 46.4387 58.2695 49.1011 54.301C49.2392 54.0953 49.4233 53.9125 49.6305 53.7754C53.6278 51.1323 57.932 55.4055 55.2696 59.374C55.1315 59.5796 54.9474 59.7624 54.7402 59.8995ZM55.4077 40.1256C50.4514 43.5152 45.05 38.1604 48.4642 33.2322C48.5947 33.0417 48.7711 32.8665 48.9629 32.7371C53.9193 29.3475 59.313 34.7023 55.9065 39.6305C55.776 39.8209 55.5995 39.9961 55.4077 40.1256ZM92.1125 72.582H88.0461V76.619H83.5884V72.582H79.522V68.1564H83.5884V64.1194H88.0461V68.1564H92.1125V72.582Z" fill="url(#paint1_linear_96_2)"/>
<defs>
<linearGradient id="paint0_linear_96_2" x1="80.1438" y1="5.39817" x2="80.1524" y2="5.41733" gradientUnits="userSpaceOnUse">
<stop stop-color="#008DDA"/>
<stop offset="1" stop-color="#41C9E2"/>
</linearGradient>
<linearGradient id="paint1_linear_96_2" x1="15.7145" y1="41.5247" x2="84.4418" y2="87.6702" gradientUnits="userSpaceOnUse">
<stop stop-color="#008DDA"/>
<stop offset="1" stop-color="#41C9E2"/>
</linearGradient>
</defs>
</svg>
