<svg width="54" height="52" viewBox="0 0 54 52" fill="none" xmlns="http://www.w3.org/2000/svg">
<mask id="mask0_32_14" style="mask-type:alpha" maskUnits="userSpaceOnUse" x="0" y="0" width="54" height="52">
<path d="M40.8071 2.59897V2.60295H40.8111L40.8349 2.60693L40.8071 2.59897Z" fill="black"/>
<path d="M50.3291 12.3936C49.8016 11.6139 48.0824 11.4432 47.4417 12.1298C45.1598 14.5853 43.5813 22.5761 42.9523 24.729C42.8624 25.0394 42.5928 25.2605 42.2724 25.2993C33.9226 26.3233 34.9229 19.6862 32.4887 9.14683C32.4887 9.14683 32.3246 0.376269 27.0693 0H27.0303C22.4158 0.0426697 21.4507 9.14683 21.4507 9.14683C19.0165 19.6862 20.0168 26.3233 11.667 25.2993C11.3466 25.2605 11.077 25.0394 10.9872 24.729C10.3581 22.5761 8.77957 14.5853 6.49775 12.1298C5.85696 11.4394 4.1378 11.6139 3.61032 12.3936C2.30531 14.3176 -1.4769 18.6273 0.621281 32.2389C0.722869 32.8983 0.769746 33.5655 0.758025 34.2327C0.703323 37.239 1.56293 47.1617 15.4297 46.7505C15.7149 47.6 16.0197 49.5395 17.8326 49.9662C19.63 50.3852 22.4315 51.3821 26.9756 51.2812C31.5197 51.3821 34.3212 50.3852 36.1185 49.9662C37.9314 49.5434 38.2362 47.6 38.5214 46.7505C52.2085 47.1578 53.2243 37.4873 53.1931 34.3491C53.1853 33.6004 53.2361 32.8557 53.3494 32.1148C55.4046 18.6001 51.6419 14.3099 50.3408 12.3897L50.3291 12.3936ZM6.93927 37.2119C5.41545 38.1971 3.78615 36.5796 4.77858 35.0667C4.8411 34.9736 4.92314 34.8922 5.01301 34.834C6.53683 33.8487 8.16225 35.4663 7.17372 36.9791C7.1112 37.0722 7.03304 37.1537 6.93927 37.2119ZM8.40057 31.5756C9.92439 30.5903 11.5537 32.2079 10.5613 33.7207C10.4988 33.8138 10.4206 33.8953 10.3269 33.9534C8.80304 34.9387 7.17371 33.325 8.16615 31.8083C8.22866 31.7152 8.3107 31.6338 8.40057 31.5756ZM10.4558 40.5944C8.93196 41.5797 7.30265 39.966 8.29509 38.4493C8.35761 38.3562 8.43965 38.2747 8.52952 38.2165C10.0533 37.2312 11.6827 38.8488 10.6902 40.3617C10.6277 40.4548 10.5496 40.5362 10.4558 40.5944ZM13.9723 37.2119C12.4485 38.1971 10.8192 36.5796 11.8116 35.0667C11.8741 34.9736 11.9523 34.8922 12.046 34.834C13.5698 33.8487 15.1992 35.4624 14.2067 36.9791C14.1442 37.0722 14.0622 37.1537 13.9723 37.2119ZM27.8742 30.3576C25.8386 31.7036 23.6466 29.5274 25.0024 27.5064C25.0728 27.4017 25.1665 27.3086 25.272 27.2388C27.3077 25.8927 29.4996 28.0689 28.1438 30.0899C28.0735 30.1946 27.9797 30.2877 27.8742 30.3576ZM28.2142 20.2875C25.6901 22.0137 22.9394 19.2867 24.6781 16.7769C24.7445 16.68 24.8344 16.5908 24.9321 16.5248C27.4561 14.7986 30.2029 17.5256 28.4681 20.0354C28.4017 20.1323 28.3118 20.2216 28.2142 20.2875ZM46.9064 36.8162H44.8355V38.8721H42.5654V36.8162H40.4946V34.5625H42.5654V32.5066H44.8355V34.5625H46.9064V36.8162Z" fill="black"/>
</mask>
<g mask="url(#mask0_32_14)">
<rect x="-15" y="-15" width="83" height="83" fill="white"/>
</g>
</svg>
