<svg width="56" height="56" viewBox="0 0 56 56" fill="none" xmlns="http://www.w3.org/2000/svg">
<path fill-rule="evenodd" clip-rule="evenodd" d="M28 50.75C31.9938 50.7559 35.9182 49.7053 39.375 47.705V40.25C39.375 38.1614 38.5453 36.1584 37.0685 34.6815C35.5916 33.2047 33.5886 32.375 31.5 32.375H24.5C22.4114 32.375 20.4084 33.2047 18.9315 34.6815C17.4547 36.1584 16.625 38.1614 16.625 40.25V47.705C20.0818 49.7053 24.0062 50.7559 28 50.75ZM44.625 40.25V43.5295C47.6515 40.2896 49.6653 36.2359 50.4189 31.8669C51.1726 27.4978 50.6331 23.0038 48.867 18.9372C47.1009 14.8706 44.185 11.4086 40.4777 8.97695C36.7705 6.54526 32.4336 5.24979 28 5.24979C23.5664 5.24979 19.2295 6.54526 15.5223 8.97695C11.815 11.4086 8.89914 14.8706 7.133 18.9372C5.36686 23.0038 4.82745 27.4978 5.58108 31.8669C6.33471 36.2359 8.34853 40.2896 11.375 43.5295V40.25C11.374 37.5438 12.2094 34.9035 13.767 32.6905C15.3246 30.4776 17.5282 28.8002 20.076 27.888C18.7544 26.3678 17.8979 24.4996 17.6087 22.506C17.3196 20.5125 17.61 18.4779 18.4453 16.6449C19.2805 14.8119 20.6255 13.2578 22.3196 12.168C24.0138 11.0783 25.9856 10.4989 28 10.4989C30.0144 10.4989 31.9862 11.0783 33.6804 12.168C35.3745 13.2578 36.7194 14.8119 37.5547 16.6449C38.39 18.4779 38.6804 20.5125 38.3913 22.506C38.1021 24.4996 37.2456 26.3678 35.924 27.888C38.4718 28.8002 40.6754 30.4776 42.233 32.6905C43.7906 34.9035 44.626 37.5438 44.625 40.25ZM28 56C35.4261 56 42.548 53.05 47.799 47.799C53.05 42.548 56 35.4261 56 28C56 20.5739 53.05 13.452 47.799 8.20101C42.548 2.94999 35.4261 0 28 0C20.5739 0 13.452 2.94999 8.20101 8.20101C2.94999 13.452 0 20.5739 0 28C0 35.4261 2.94999 42.548 8.20101 47.799C13.452 53.05 20.5739 56 28 56ZM33.25 21C33.25 22.3924 32.6969 23.7277 31.7123 24.7123C30.7277 25.6969 29.3924 26.25 28 26.25C26.6076 26.25 25.2723 25.6969 24.2877 24.7123C23.3031 23.7277 22.75 22.3924 22.75 21C22.75 19.6076 23.3031 18.2723 24.2877 17.2877C25.2723 16.3031 26.6076 15.75 28 15.75C29.3924 15.75 30.7277 16.3031 31.7123 17.2877C32.6969 18.2723 33.25 19.6076 33.25 21Z" fill="#F8F8F8"/>
</svg>
